<svg width="1920" height="1080" viewBox="0 0 1920 1080" xmlns="http://www.w3.org/2000/svg"><path d="M 0,1080 C 0,1080 0,180 0,180 C 96.37435897435898,213.65641025641025 192.74871794871797,247.3128205128205 296,231 C 399.25128205128203,214.6871794871795 509.3794871794871,148.40512820512822 639,121 C 768.6205128205129,93.59487179487179 917.7333333333336,105.06666666666665 1009,116 C 1100.2666666666664,126.93333333333335 1133.6871794871795,137.32820512820516 1235,151 C 1336.3128205128205,164.67179487179484 1505.5179487179487,181.62051282051283 1631,187 C 1756.4820512820513,192.37948717948717 1838.2410256410258,186.18974358974359 1920,180 C 1920,180 1920,1080 1920,1080 Z" fill="#f0740f" opacity="0.09999999999999999"/><path d="M 0,1080 C 0,1080 0,360 0,360 C 92.61025641025643,338.6974358974359 185.22051282051285,317.39487179487185 282,323 C 378.77948717948715,328.60512820512815 479.7282051282051,361.11794871794865 583,385 C 686.2717948717949,408.88205128205135 791.8666666666668,424.1333333333333 901,425 C 1010.1333333333332,425.8666666666667 1122.805128205128,412.34871794871793 1229,381 C 1335.194871794872,349.65128205128207 1434.9128205128204,300.4717948717949 1549,294 C 1663.0871794871796,287.5282051282051 1791.5435897435898,323.7641025641026 1920,360 C 1920,360 1920,1080 1920,1080 Z" fill="#f0740f" opacity="0.19999999999999998"/><path d="M 0,1080 C 0,1080 0,540 0,540 C 108.33333333333334,511.2205128205128 216.66666666666669,482.44102564102565 314,490 C 411.3333333333333,497.55897435897435 497.66666666666663,541.4564102564102 605,556 C 712.3333333333334,570.5435897435898 840.6666666666667,555.7333333333333 954,538 C 1067.3333333333333,520.2666666666667 1165.6666666666665,499.6102564102564 1283,498 C 1400.3333333333335,496.3897435897436 1536.6666666666667,513.8256410256411 1646,524 C 1755.3333333333333,534.1743589743589 1837.6666666666665,537.0871794871795 1920,540 C 1920,540 1920,1080 1920,1080 Z" fill="#f0740f" opacity="0.3"/><path d="M 0,1080 C 0,1080 0,720 0,720 C 97.05641025641026,718.8025641025641 194.11282051282052,717.6051282051283 305,733 C 415.8871794871795,748.3948717948717 540.6051282051283,780.3820512820513 658,763 C 775.3948717948717,745.6179487179487 885.4666666666667,678.8666666666666 975,673 C 1064.5333333333333,667.1333333333334 1133.5282051282052,722.151282051282 1223,740 C 1312.4717948717948,757.848717948718 1422.4205128205128,738.5282051282052 1542,729 C 1661.5794871794872,719.4717948717948 1790.7897435897435,719.7358974358974 1920,720 C 1920,720 1920,1080 1920,1080 Z" fill="#f0740f" opacity="0.39999999999999997"/><path d="M 0,1080 C 0,1080 0,900 0,900 C 130.54615384615386,875.7230769230769 261.0923076923077,851.4461538461538 352,853 C 442.9076923076923,854.5538461538462 494.176923076923,881.9384615384614 580,899 C 665.823076923077,916.0615384615386 786.2000000000003,922.8 912,902 C 1037.7999999999997,881.2 1169.0230769230766,832.8615384615384 1272,835 C 1374.9769230769234,837.1384615384616 1449.7076923076925,889.7538461538462 1553,909 C 1656.2923076923075,928.2461538461538 1788.1461538461538,914.123076923077 1920,900 C 1920,900 1920,1080 1920,1080 Z" fill="#f0740f" opacity="0.49999999999999994"/></svg>